<!-- http://css-tricks.com/svg-symbol-good-choice-icons/ -->
<svg id="svg-icons" xmlns="http://www.w3.org/2000/svg" style="display: none;">

    <symbol id="chevron" viewBox="0 0 24 24">
        <polygon points="9.1,10.1 12,12.4 14.9,10.1 15.5,10.8 12,13.9 8.5,10.8  " />
    </symbol>

    <symbol id="close" viewBox="0 0 24 24">
        <path d="M7.8,15.7l3.7-3.7L7.8,8.2l0.5-0.5l3.7,3.7l3.8-3.7l0.5,0.5L12.5,12l3.7,3.7l-0.5,0.5L12,12.5l-3.7,3.8L7.8,15.7z" />
    </symbol>

    <symbol id="menu-global" viewBox="0 0 24 24">
        <path d="M3,18h18v-2H3V18z M3,13h18v-2H3V13z M3,6v2h18V6H3z" />
    </symbol>

    <symbol id="menu-local" viewBox="0 0 24 24">
        <path d="M12,8c1.1,0,2-0.9,2-2s-0.9-2-2-2s-2,0.9-2,2S10.9,8,12,8z M12,10c-1.1,0-2,0.9-2,2s0.9,2,2,2s2-0.9,2-2S13.1,10,12,10z
         M12,16c-1.1,0-2,0.9-2,2s0.9,2,2,2s2-0.9,2-2S13.1,16,12,16z" />
    </symbol>

    <symbol id="reload" viewBox="0 0 24 24">
        <path d="M3.9,12.1L2.1,9.8c0,0,0.8-0.4,1.1,0.1c0.1,0.1,0.2,0.2,0.2,0.3c0.4-1.9,1.4-3.6,2.8-4.8C7.8,4.1,9.8,3.3,12,3.3
        c2.2,0,4.2,0.8,5.8,2.2c1.3,1.1,2.2,2.6,2.7,4.3l-1.1,0.3C19,8.6,18.1,7.3,17,6.3c-1.3-1.2-3.1-1.9-5-1.9c-1.9,0-3.6,0.7-5,1.9
        c-1.2,1-2,2.4-2.4,3.9c0,0,0.1-0.1,0.2-0.2C5.3,9.6,6,10.1,6,10.1L3.9,12.1z M20.1,11.9l-2.1,2c0,0,0.7,0.5,1.1,0.1
        c0.1-0.1,0.2-0.2,0.2-0.2c-0.4,1.6-1.2,3-2.4,4c-1.3,1.2-3.1,1.9-5,1.9c-1.9,0-3.6-0.7-5-1.9c-1.1-1-1.9-2.3-2.3-3.8l-1.1,0.3
        C4,16,5,17.5,6.3,18.6c1.5,1.3,3.5,2.2,5.7,2.2c2.2,0,4.2-0.8,5.8-2.2c1.4-1.2,2.4-2.9,2.8-4.7c0,0.1,0.1,0.1,0.2,0.2
        c0.4,0.5,1.1,0.1,1.1,0.1L20.1,11.9z" />
    </symbol>

    <symbol id="search" viewBox="0 0 24 24">
        <path d="M14.7,13.6h-0.6L14,13.4c0.7-0.8,1.1-1.9,1.1-3.1c0-2.6-2.1-4.8-4.8-4.8s-4.8,2.1-4.8,4.8c0,2.6,2.1,4.8,4.8,4.8
        c1.2,0,2.3-0.4,3.1-1.1l0.2,0.2v0.6l3.7,3.6l1.1-1.1L14.7,13.6z M10.4,13.6c-1.8,0-3.3-1.5-3.3-3.3c0-1.8,1.5-3.3,3.3-3.3
        s3.3,1.5,3.3,3.3C13.6,12.2,12.2,13.6,10.4,13.6z" />
    </symbol>

    <symbol id="add" viewBox="0 0 24 24">
        <path d="M17.7,12.4l-5.3,0l0,5.3l-0.7,0l0-5.3l-5.3,0v-0.7l5.3,0l0-5.3l0.7,0l0,5.3l5.3,0V12.4z" />
    </symbol>

</svg>