<?xml version="1.0" encoding="utf-8"?>
<!-- Generator: Adobe Illustrator 17.0.2, SVG Export Plug-In . SVG Version: 6.00 Build 0)  -->
<!DOCTYPE svg PUBLIC "-//W3C//DTD SVG 1.1//EN" "http://www.w3.org/Graphics/SVG/1.1/DTD/svg11.dtd">
<svg version="1.1" xmlns="http://www.w3.org/2000/svg" xmlns:xlink="http://www.w3.org/1999/xlink" x="0px" y="0px" width="24px"
	 height="24px" viewBox="0 0 24 24" enable-background="new 0 0 24 24" xml:space="preserve">
<g id="menu-global">
</g>
<g id="reload">
	<path d="M3.9,12.1L2.1,9.8c0,0,0.8-0.4,1.1,0.1c0.1,0.1,0.2,0.2,0.2,0.3c0.4-1.9,1.4-3.6,2.8-4.8C7.8,4.1,9.8,3.3,12,3.3
		c2.2,0,4.2,0.8,5.8,2.2c1.3,1.1,2.2,2.6,2.7,4.3l-1.1,0.3C19,8.6,18.1,7.3,17,6.3c-1.3-1.2-3.1-1.9-5-1.9c-1.9,0-3.6,0.7-5,1.9
		c-1.2,1-2,2.4-2.4,3.9c0,0,0.1-0.1,0.2-0.2C5.3,9.6,6,10.1,6,10.1L3.9,12.1z M20.1,11.9l-2.1,2c0,0,0.7,0.5,1.1,0.1
		c0.1-0.1,0.2-0.2,0.2-0.2c-0.4,1.6-1.2,3-2.4,4c-1.3,1.2-3.1,1.9-5,1.9c-1.9,0-3.6-0.7-5-1.9c-1.1-1-1.9-2.3-2.3-3.8l-1.1,0.3
		C4,16,5,17.5,6.3,18.6c1.5,1.3,3.5,2.2,5.7,2.2c2.2,0,4.2-0.8,5.8-2.2c1.4-1.2,2.4-2.9,2.8-4.7c0,0.1,0.1,0.1,0.2,0.2
		c0.4,0.5,1.1,0.1,1.1,0.1L20.1,11.9z"/>
</g>
<g id="menu-local">
</g>
<g id="chevron">
</g>
<g id="close">
</g>
</svg>
