<?xml version="1.0" encoding="utf-8"?>
<!-- Generator: Adobe Illustrator 17.0.2, SVG Export Plug-In . SVG Version: 6.00 Build 0)  -->
<!DOCTYPE svg PUBLIC "-//W3C//DTD SVG 1.1//EN" "http://www.w3.org/Graphics/SVG/1.1/DTD/svg11.dtd">
<svg version="1.1" xmlns="http://www.w3.org/2000/svg" xmlns:xlink="http://www.w3.org/1999/xlink" x="0px" y="0px" width="24px"
	 height="24px" viewBox="0 0 24 24" enable-background="new 0 0 24 24" xml:space="preserve">
<g id="menu-global">
</g>
<g id="reload">
</g>
<g id="menu-local">
</g>
<g id="chevron">
</g>
<g id="close">
</g>
<g id="search">
	<path d="M14.7,13.6h-0.6L14,13.4c0.7-0.8,1.1-1.9,1.1-3.1c0-2.6-2.1-4.8-4.8-4.8s-4.8,2.1-4.8,4.8c0,2.6,2.1,4.8,4.8,4.8
		c1.2,0,2.3-0.4,3.1-1.1l0.2,0.2v0.6l3.7,3.6l1.1-1.1L14.7,13.6z M10.4,13.6c-1.8,0-3.3-1.5-3.3-3.3c0-1.8,1.5-3.3,3.3-3.3
		s3.3,1.5,3.3,3.3C13.6,12.2,12.2,13.6,10.4,13.6z"/>
</g>
</svg>
